<svg width="66" height="66" viewBox="0 0 66 66" fill="none" xmlns="http://www.w3.org/2000/svg">
<path d="M66 33C66 51.2254 51.2254 66 33 66C14.7746 66 0 51.2254 0 33C0 14.7746 14.7746 0 33 0C51.2254 0 66 14.7746 66 33Z" fill="#2BA84A"/>
<g filter="url(#filter0_d_718_16519)">
<path d="M57.5 32.75C57.5 46.419 46.419 57.5 32.75 57.5C19.081 57.5 8 46.419 8 32.75C8 19.081 19.081 8 32.75 8C46.419 8 57.5 19.081 57.5 32.75Z" fill="white"/>
</g>
<path d="M25.0003 27.6665H22.3337C20.8609 27.6665 19.667 28.8604 19.667 30.3332V42.3332C19.667 43.8059 20.8609 44.9998 22.3337 44.9998H25.0003C26.4731 44.9998 27.667 43.8059 27.667 42.3332V30.3332C27.667 28.8604 26.4731 27.6665 25.0003 27.6665Z" fill="#3AC462"/>
<path opacity="0.4" d="M38.1695 45H33.2818C32.2289 45 31.1995 44.6883 30.3234 44.1043L28.2607 42.7292C27.8898 42.4819 27.667 42.0656 27.667 41.6198V30.6874C27.667 30.4554 27.7275 30.2274 27.8427 30.0259L32.7124 21.5039C32.8904 21.1923 33.2218 21 33.5806 21H34.7719C37.4343 21 39.0222 23.9671 37.5454 26.1823L35.667 29H42.9183C44.6531 29 45.9261 30.6304 45.5053 32.3134L43.3436 40.9602C42.7501 43.3344 40.6168 45 38.1695 45Z" fill="#3AC462"/>
<path d="M55.6881 6.68057C55.1083 5.11346 52.8918 5.11345 52.3119 6.68057L51.061 10.061L47.6806 11.3119C46.1135 11.8917 46.1135 14.1082 47.6806 14.6881L51.061 15.939L52.3119 19.3194C52.8918 20.8865 55.1082 20.8865 55.6881 19.3194L56.939 15.939L60.3194 14.6881C61.8865 14.1083 61.8865 11.8918 60.3194 11.3119L56.939 10.061L55.6881 6.68057ZM51.0291 10.1472C51.0291 10.1471 51.0292 10.147 51.0292 10.1469L51.0291 10.1472ZM56.8528 10.0291C56.8528 10.0291 56.8529 10.0292 56.853 10.0292L56.8528 10.0291Z" fill="#EB8221" stroke="white" stroke-width="2"/>
<path d="M7.03164 47.3472C6.67726 46.3895 5.32274 46.3895 4.96836 47.3472L4.00627 49.9472C3.99615 49.9746 3.97456 49.9961 3.94719 50.0063L1.34719 50.9684C0.389506 51.3227 0.389506 52.6773 1.34719 53.0316L3.94719 53.9937C3.97456 54.0039 3.99615 54.0254 4.00627 54.0528L4.96836 56.6528C5.32274 57.6105 6.67726 57.6105 7.03164 56.6528L7.99373 54.0528C8.00385 54.0254 8.02544 54.0039 8.05281 53.9937L10.6528 53.0316C11.6105 52.6773 11.6105 51.3227 10.6528 50.9684L8.05281 50.0063C8.02544 49.9961 8.00385 49.9746 7.99373 49.9472L7.03164 47.3472Z" fill="#EB8221" stroke="white"/>
<defs>
<filter id="filter0_d_718_16519" x="4" y="8" width="57.5" height="57.5" filterUnits="userSpaceOnUse" color-interpolation-filters="sRGB">
<feFlood flood-opacity="0" result="BackgroundImageFix"/>
<feColorMatrix in="SourceAlpha" type="matrix" values="0 0 0 0 0 0 0 0 0 0 0 0 0 0 0 0 0 0 127 0" result="hardAlpha"/>
<feOffset dy="4"/>
<feGaussianBlur stdDeviation="2"/>
<feComposite in2="hardAlpha" operator="out"/>
<feColorMatrix type="matrix" values="0 0 0 0 0 0 0 0 0 0 0 0 0 0 0 0 0 0 0.1 0"/>
<feBlend mode="normal" in2="BackgroundImageFix" result="effect1_dropShadow_718_16519"/>
<feBlend mode="normal" in="SourceGraphic" in2="effect1_dropShadow_718_16519" result="shape"/>
</filter>
</defs>
</svg>
